<svg width="1440" height="1024" viewBox="0 0 1440 1024" fill="none" xmlns="http://www.w3.org/2000/svg">
<rect width="1440" height="1024" fill="#7D2ACB"/>
<path d="M533.904 476V402.016L501.008 459.488H495.376L462.352 402.016V476H453.392V385.12H462.608L498.064 447.328L533.776 385.12H542.864V476H533.904ZM593.802 385.12H601.354L639.114 476H629.642L617.866 447.584H577.034L565.386 476H555.786L593.802 385.12ZM615.818 440.544L597.514 395.616L578.954 440.544H615.818ZM661.102 401.632V476H652.142V385.12H659.566L719.214 460.896V385.248H728.174V476H719.854L661.102 401.632ZM779.177 385.12H786.729L824.489 476H815.017L803.241 447.584H762.409L750.761 476H741.161L779.177 385.12ZM801.193 440.544L782.889 395.616L764.329 440.544H801.193ZM870.622 476.64C864.563 476.64 858.931 475.36 853.726 472.8C848.521 470.155 843.998 466.613 840.158 462.176C836.318 457.739 833.331 452.789 831.198 447.328C829.15 441.867 828.126 436.235 828.126 430.432C828.126 424.288 829.15 418.485 831.198 413.024C833.331 407.477 836.275 402.571 840.03 398.304C843.785 394.037 848.222 390.667 853.342 388.192C858.462 385.717 864.051 384.48 870.11 384.48C879.07 384.48 886.366 386.315 891.998 389.984C897.63 393.653 901.897 398.432 904.798 404.32L897.886 408.928C894.985 403.296 891.102 399.157 886.238 396.512C881.374 393.867 875.955 392.544 869.982 392.544C864.947 392.544 860.382 393.611 856.286 395.744C852.275 397.877 848.819 400.736 845.918 404.32C843.017 407.904 840.798 411.957 839.262 416.48C837.811 421.003 837.086 425.696 837.086 430.56C837.086 435.68 837.939 440.544 839.646 445.152C841.353 449.675 843.785 453.728 846.942 457.312C850.099 460.811 853.726 463.584 857.822 465.632C862.003 467.595 866.483 468.576 871.262 468.576C876.809 468.576 882.057 467.211 887.006 464.48C891.955 461.664 896.691 457.355 901.214 451.552V461.024C892.595 471.435 882.398 476.64 870.622 476.64ZM899.806 438.24H879.582V431.328H907.358V476H899.806V438.24ZM925.767 476V385.12H964.167C968.092 385.12 971.676 385.931 974.919 387.552C978.162 389.173 980.978 391.392 983.367 394.208C985.842 396.939 987.719 400.011 988.999 403.424C990.364 406.752 991.047 410.165 991.047 413.664C991.047 418.016 990.194 422.112 988.487 425.952C986.866 429.792 984.519 433.035 981.447 435.68C978.46 438.325 974.919 440.075 970.823 440.928L993.095 476H982.983L961.607 442.464H934.727V476H925.767ZM934.727 434.528H964.423C968.007 434.528 971.122 433.547 973.767 431.584C976.412 429.621 978.46 427.061 979.911 423.904C981.362 420.661 982.087 417.248 982.087 413.664C982.087 409.995 981.234 406.624 979.527 403.552C977.906 400.395 975.687 397.877 972.871 396C970.14 394.037 967.068 393.056 963.655 393.056H934.727V434.528Z" fill="white"/>
</svg>
